<?xml version="1.0" encoding="UTF-8"?>
<svg id="Calque_3" data-name="Calque 3" xmlns="http://www.w3.org/2000/svg" viewBox="0 0 400.19 314.77">
  <defs>
    <style>
      .cls-1 {
        fill: #231f20;
      }
    </style>
  </defs>
  <g>
    <polygon class="cls-1" points="182.51 77.73 182.51 131.29 163.28 157.62 120.48 157.62 116.81 166.77 279.34 166.77 274.08 158.07 233.33 158.07 211.58 129.46 211.81 77.73 182.51 77.73"/>
    <path class="cls-1" d="M173.52,85.09v42.35s-16.25,22.66-16.25,22.66l-22.7,3.82s-2.71-46.39,38.95-68.83Z"/>
    <path class="cls-1" d="M221.79,85.09v42.35l16.25,22.66,22.7,3.82s2.71-46.39-38.95-68.83Z"/>
  </g>
  <g>
    <path class="cls-1" d="M36.84,185.49h28.8c10.27,0,18.05,2.58,23.35,7.75,5.3,5.17,7.95,13.45,7.95,24.85s-2.65,18.88-7.95,24.05c-5.3,5.17-13.08,7.75-23.35,7.75h-28.8v-64.4ZM63.24,235.48c3.33,0,6.03-.48,8.1-1.45,2.07-.97,3.65-2.7,4.75-5.2s1.65-6.08,1.65-10.75-.5-8.42-1.5-11.05c-1-2.63-2.55-4.48-4.65-5.55-2.1-1.07-4.88-1.6-8.35-1.6h-7.6v35.6h7.6Z"/>
    <path class="cls-1" d="M103.94,185.49h18.8v64.4h-18.8v-64.4Z"/>
    <path class="cls-1" d="M138.94,242.34c-6.13-5.7-9.2-13.82-9.2-24.35s3.02-19.17,9.05-24.9c6.03-5.73,14.95-8.6,26.75-8.6,3.8,0,7.25.28,10.35.85,3.1.57,6.21,1.42,9.35,2.55v16.4c-5.73-2.53-11.87-3.8-18.4-3.8-6.13,0-10.65,1.4-13.55,4.2s-4.35,7.23-4.35,13.3,1.52,10.15,4.55,12.85,7.55,4.05,13.55,4.05c6.6,0,12.73-1.23,18.4-3.7v16.5c-6.2,2.13-12.8,3.2-19.8,3.2-11.67,0-20.57-2.85-26.7-8.55Z"/>
    <path class="cls-1" d="M215.14,185.49h19.9l24.7,64.4h-19.6l-5.4-13.7h-19.4l-5.3,13.7h-19.6l24.7-64.4ZM232.24,222.68l-7.2-18.9-7.2,18.9h14.4Z"/>
    <path class="cls-1" d="M268.34,199.48h-18.1v-14h55v14h-18.1v50.4h-18.8v-50.4Z"/>
    <path class="cls-1" d="M310.24,185.49h48.8v14.4h-30v10.5h26.3v14.6h-26.3v10.5h30v14.4h-48.8v-64.4Z"/>
  </g>
  <polygon class="cls-1" points="125.83 114.47 116.98 143.09 42.84 170.75 125.83 114.47"/>
  <polygon class="cls-1" points="269.84 114.47 278.69 143.09 352.83 170.75 269.84 114.47"/>
</svg>